<svg width="422" height="141" viewBox="0 0 422 141" fill="none" xmlns="http://www.w3.org/2000/svg">
<g filter="url(#filter0_bd_10_34)">
<path d="M257.815 73.1427H228.016V54.9443H249.513L251.536 42.2807H228.016V26.8484H256.325V13.9719H210.456V86.0203H257.815V73.1427" fill="#1F2A44"/>
<path d="M227.887 122.023C227.887 124.515 226.681 125.762 224.275 125.762H219.889C217.509 125.762 216.32 124.515 216.32 122.023V107.361C216.32 104.868 217.509 103.622 219.889 103.622H224.275C226.681 103.622 227.887 104.868 227.887 107.361V122.023ZM224.661 100.871H219.545C217.567 100.871 216.011 101.429 214.88 102.546C213.748 103.665 213.181 105.228 213.181 107.233V122.152C213.181 124.157 213.748 125.721 214.88 126.838C216.011 127.955 217.567 128.514 219.545 128.514H224.661C226.639 128.514 228.193 127.949 229.327 126.817C230.457 125.684 231.024 124.13 231.024 122.152V107.233C231.024 105.256 230.457 103.701 229.327 102.569C228.193 101.437 226.639 100.871 224.661 100.871" fill="#1F2A44"/>
<path d="M192.847 100.871H187.688C185.709 100.871 184.155 101.429 183.023 102.546C181.891 103.665 181.325 105.228 181.325 107.233V122.152C181.325 124.157 181.891 125.721 183.023 126.838C184.155 127.955 185.709 128.514 187.688 128.514H192.847C194.825 128.514 196.379 127.955 197.512 126.838C198.644 125.721 199.209 124.157 199.209 122.152V120.044C199.209 119.644 199.009 119.444 198.608 119.444H196.673C196.272 119.444 196.071 119.644 196.071 120.044V122.023C196.071 124.515 194.867 125.762 192.46 125.762H188.032C185.652 125.762 184.464 124.515 184.464 122.023V107.361C184.464 104.868 185.652 103.622 188.032 103.622H192.46C194.867 103.622 196.071 104.868 196.071 107.361V109.339C196.071 109.742 196.272 109.942 196.673 109.942H198.608C199.009 109.942 199.209 109.742 199.209 109.339V107.233C199.209 105.228 198.644 103.665 197.512 102.546C196.379 101.429 194.825 100.871 192.847 100.871" fill="#1F2A44"/>
<path d="M140.991 86.0203H159.648V9.46865H140.991V86.0203Z" fill="#1F2A44"/>
<path d="M187.125 40.4515C189.008 38.4911 190.78 36.0979 192.44 33.2713C194.097 30.4443 195.624 27.1083 197.02 23.264C198.413 19.4187 199.639 14.8213 200.695 9.46865H182.149C181.245 13.5389 180.245 17.2536 179.153 20.6061C178.06 23.9619 176.723 27.0145 175.14 29.7651C173.556 32.5176 171.615 34.9661 169.316 37.1156C167.016 39.264 164.208 41.1296 160.892 42.7119V44.0692L186.899 86.0203H207.705L181.245 45.7661C183.28 44.1828 185.24 42.4113 187.125 40.4515" fill="#1F2A44"/>
<path d="M260.388 125.676H249.553C249.267 125.676 249.123 125.548 249.123 125.288V101.472C249.123 101.07 248.923 100.871 248.521 100.871H246.587C246.185 100.871 245.985 101.07 245.985 101.472V127.913C245.985 128.313 246.185 128.514 246.587 128.514H260.388C260.788 128.514 260.989 128.313 260.989 127.913V126.321C260.989 125.892 260.788 125.676 260.388 125.676Z" fill="#1F2A44"/>
<path d="M344.335 13.9719H326.775V86.0203H344.335V13.9719Z" fill="#1F2A44"/>
<path d="M288.376 125.676H277.541C277.255 125.676 277.112 125.548 277.112 125.288V101.472C277.112 101.07 276.909 100.871 276.508 100.871H274.575C274.172 100.871 273.973 101.07 273.973 101.472V127.913C273.973 128.313 274.172 128.514 274.575 128.514H288.376C288.776 128.514 288.977 128.313 288.977 127.913V126.321C288.977 125.892 288.776 125.676 288.376 125.676Z" fill="#1F2A44"/>
<path d="M400.099 13.9719L400.419 41.5348C400.419 42.6703 400.452 43.9828 400.523 45.4723C400.593 46.9624 400.683 48.5061 400.789 50.1025C400.896 51.6989 400.985 53.2411 401.056 54.7312C401.125 56.2219 401.197 57.5348 401.269 58.6687C400.772 57.8176 400.168 56.8072 399.459 55.6369C398.751 54.4651 397.987 53.2411 397.171 51.9645C396.356 50.6869 395.556 49.428 394.777 48.1864C393.996 46.9452 393.287 45.828 392.648 44.8348L371.896 13.9719H357.529V86.0203H375.089L374.771 58.3504C374.771 57.3567 374.733 56.1151 374.664 54.6244C374.592 53.1348 374.503 51.6109 374.396 50.0489C374.289 48.4889 374.184 46.9452 374.077 45.4192C373.971 43.8952 373.881 42.5984 373.812 41.5348C374.308 42.3171 374.929 43.3276 375.673 44.5687C376.42 45.8104 377.199 47.0875 378.015 48.3995C378.832 49.7129 379.611 50.9719 380.357 52.1776C381.103 53.3843 381.688 54.3061 382.112 54.9443L402.653 86.0203H417.659V13.9719H400.099Z" fill="#1F2A44"/>
<path d="M341.771 100.871H337.128C335.149 100.871 333.595 101.429 332.463 102.546C331.332 103.665 330.764 105.228 330.764 107.233V122.152C330.764 124.157 331.332 125.721 332.463 126.838C333.595 127.955 335.149 128.514 337.128 128.514H341.771C343.748 128.514 345.295 127.955 346.413 126.838C347.532 125.721 348.091 124.157 348.091 122.152V114.929C348.091 114.327 347.803 114.025 347.229 114.025H340.309C339.907 114.025 339.707 114.226 339.707 114.629V116.218C339.707 116.592 339.907 116.778 340.309 116.778H344.565C344.823 116.778 344.951 116.921 344.951 117.207V122.023C344.951 124.515 343.761 125.762 341.384 125.762H337.472C335.092 125.762 333.903 124.515 333.903 122.023V107.361C333.903 104.868 335.092 103.622 337.472 103.622H341.384C343.761 103.622 344.951 104.868 344.951 107.361V108.996C344.951 109.425 345.152 109.64 345.555 109.64H347.489C347.889 109.64 348.091 109.425 348.091 108.996V107.233C348.091 105.256 347.532 103.701 346.413 102.569C345.295 101.437 343.748 100.871 341.771 100.871" fill="#1F2A44"/>
<path d="M377.153 100.871H363.653C363.252 100.871 363.052 101.07 363.052 101.472V127.913C363.052 128.313 363.252 128.514 363.653 128.514H377.153C377.555 128.514 377.755 128.313 377.755 127.913V126.364C377.755 125.965 377.555 125.762 377.153 125.762H366.619C366.333 125.762 366.189 125.634 366.189 125.376V116.218C366.189 115.96 366.333 115.832 366.619 115.832H375.821C376.221 115.832 376.423 115.631 376.423 115.229V113.682C376.423 113.282 376.221 113.08 375.821 113.08H366.619C366.333 113.08 366.189 112.95 366.189 112.694V104.01C366.189 103.751 366.333 103.622 366.619 103.622H377.153C377.555 103.622 377.755 103.421 377.755 103.019V101.472C377.755 101.07 377.555 100.871 377.153 100.871Z" fill="#1F2A44"/>
<path d="M290.911 41.5348L278.14 13.9719H259.623L281.865 58.3504V86.0203H299.319V59.3083L322.307 13.9719H304.001L290.911 41.5348Z" fill="#1F2A44"/>
<path d="M316.06 100.871H302.561C302.16 100.871 301.959 101.07 301.959 101.472V127.913C301.959 128.313 302.16 128.514 302.561 128.514H316.06C316.461 128.514 316.663 128.313 316.663 127.913V126.364C316.663 125.965 316.461 125.762 316.06 125.762H305.528C305.24 125.762 305.099 125.634 305.099 125.376V116.218C305.099 115.96 305.24 115.832 305.528 115.832H314.727C315.129 115.832 315.331 115.631 315.331 115.229V113.682C315.331 113.282 315.129 113.08 314.727 113.08H305.528C305.24 113.08 305.099 112.95 305.099 112.694V104.01C305.099 103.751 305.24 103.622 305.528 103.622H316.06C316.461 103.622 316.663 103.421 316.663 103.019V101.472C316.663 101.07 316.461 100.871 316.06 100.871Z" fill="#1F2A44"/>
<path d="M107.204 -2.94922e-06L59.7473 47.8509L107.204 95.5869V-2.94922e-06Z" fill="#385E9D"/>
<path d="M52.0421 -6.30345e-06V47.8457L4 -6.30345e-06H52.0421Z" fill="#00B388"/>
<path d="M52.0421 47.8463V95.5869H4.28906L52.0421 47.8463Z" fill="#E1523D"/>
<rect x="138" y="96" width="280" height="35" fill="white"/>
<path d="M158.8 107.434H155.48V103.914L153.08 101.434H146.96L144.88 103.554V109.074L146.84 111.074H155.16L159.2 115.314V123.594L155.04 127.994H144.96L140.8 123.594V118.554H144.12V122.074L146.56 124.554H153.48L155.52 122.434V116.474L153.6 114.514H145.28L141.2 110.234V102.394L145.36 97.994H154.64L158.8 102.394V107.434ZM174.344 127.994L170.184 123.594V102.394L174.344 97.994H185.624L189.784 102.394V123.594L185.624 127.994H174.344ZM175.904 124.554H184.024L186.104 122.434V103.554L184.064 101.434H175.944L173.864 103.554V122.434L175.904 124.554ZM216.4 118.554H219.6V123.594L215.44 127.994H205.36L201.2 123.594V102.394L205.36 97.994H215.44L219.6 102.394V107.434H216.4V104.034L213.88 101.434H206.96L204.88 103.554V122.434L206.92 124.554H213.84L216.4 121.954V118.554ZM229.784 124.794H232.984V101.194H229.784V97.994H239.864V101.194H236.664V124.794H239.864V127.994H229.784V124.794ZM255.448 97.994H266.128V101.194H264.288L271.328 124.794H273.328V127.994H264.848V124.794H267.648L265.808 118.634H255.768L253.928 124.794H256.728V127.994H248.248V124.794H250.248L257.288 101.194H255.448V97.994ZM260.768 101.794L256.728 115.434H264.848L260.768 101.794ZM282.138 97.994H291.818V101.194H288.618V124.794H297.338V120.154H300.378V127.994H282.138V124.794H284.938V101.194H282.138V97.994Z" fill="#232F4D"/>
</g>
<defs>
<filter id="filter0_bd_10_34" x="-4" y="-8.00001" width="430" height="147" filterUnits="userSpaceOnUse" color-interpolation-filters="sRGB">
<feFlood flood-opacity="0" result="BackgroundImageFix"/>
<feGaussianBlur in="BackgroundImage" stdDeviation="4"/>
<feComposite in2="SourceAlpha" operator="in" result="effect1_backgroundBlur_10_34"/>
<feColorMatrix in="SourceAlpha" type="matrix" values="0 0 0 0 0 0 0 0 0 0 0 0 0 0 0 0 0 0 127 0" result="hardAlpha"/>
<feOffset dy="4"/>
<feGaussianBlur stdDeviation="2"/>
<feComposite in2="hardAlpha" operator="out"/>
<feColorMatrix type="matrix" values="0 0 0 0 0 0 0 0 0 0 0 0 0 0 0 0 0 0 0.25 0"/>
<feBlend mode="normal" in2="effect1_backgroundBlur_10_34" result="effect2_dropShadow_10_34"/>
<feBlend mode="normal" in="SourceGraphic" in2="effect2_dropShadow_10_34" result="shape"/>
</filter>
</defs>
</svg>
